<svg width="128" height="128" viewBox="0 0 128 128" fill="none" xmlns="http://www.w3.org/2000/svg">
<mask id="path-1-outside-1_29_8" maskUnits="userSpaceOnUse" x="5.59102" y="1.51183" width="116" height="126" fill="black">
<rect fill="white" x="5.59102" y="1.51183" width="116" height="126"/>
<path d="M103.171 11.6118C103.171 15.4998 103.171 17.2818 104.305 18.5778C105.601 19.7118 107.383 19.7118 111.271 19.7118C115.159 19.7118 116.941 19.7118 118.237 20.8458C119.371 22.1418 119.371 23.9238 119.371 27.8118V116.912C119.371 120.8 119.371 122.582 118.237 123.878C116.941 125.012 115.159 125.012 111.271 125.012H103.171C99.283 125.012 97.501 125.012 96.205 123.878C95.071 122.582 95.071 120.8 95.071 116.912V84.5118C95.071 80.6238 95.071 78.8418 93.937 77.5458C92.641 76.4118 90.859 76.4118 86.971 76.4118H39.991C36.103 76.4118 34.321 76.4118 33.025 77.5458C31.891 78.8418 31.891 80.6238 31.891 84.5118V116.912C31.891 120.8 31.891 122.582 30.757 123.878C29.461 125.012 27.679 125.012 23.791 125.012H15.691C11.803 125.012 10.021 125.012 8.72502 123.878C7.59102 122.582 7.59102 120.8 7.59102 116.912V27.8118C7.59102 23.9238 7.59102 22.1418 8.72502 20.8458C10.021 19.7118 11.803 19.7118 15.691 19.7118C19.579 19.7118 21.361 19.7118 22.657 18.5778C23.791 17.2818 23.791 15.4998 23.791 11.6118C23.791 7.72383 23.791 5.94183 24.925 4.64583C26.221 3.51183 28.003 3.51183 31.891 3.51183H95.071C98.959 3.51183 100.741 3.51183 102.037 4.64583C103.171 5.94183 103.171 7.72383 103.171 11.6118ZM95.071 61.0118V52.9118C95.071 49.0238 95.071 47.2418 93.937 45.9458C92.641 44.8118 90.859 44.8118 86.971 44.8118H39.991C36.103 44.8118 34.321 44.8118 33.025 45.9458C31.891 47.2418 31.891 49.0238 31.891 52.9118V61.0118C31.891 64.8998 31.891 66.6818 33.025 67.9778C34.321 69.1118 36.103 69.1118 39.991 69.1118H86.971C90.859 69.1118 92.641 69.1118 93.937 67.9778C95.071 66.6818 95.071 64.8998 95.071 61.0118Z"/>
<path d="M98.5408 22.1118C98.5408 25.6398 98.5408 27.2568 99.5282 28.4328C100.657 29.4618 102.208 29.4618 105.593 29.4618C108.979 29.4618 110.53 29.4618 111.659 30.4908C112.646 31.6668 112.646 33.2838 112.646 36.8118C112.646 36.8118 112.646 114.134 112.646 117.662C112.646 121.19 112.649 125.01 112.649 125.01C112.649 125.01 108.979 125.012 105.593 125.012H98.5408C95.1556 125.012 93.604 125.012 92.4755 123.983C91.4882 122.807 91.4882 121.19 91.4882 117.662V88.2618C91.4882 84.7338 91.4882 83.1168 90.5008 81.9408C89.3724 80.9118 87.8208 80.9118 84.4355 80.9118H43.5301C40.1448 80.9118 38.5932 80.9118 37.4648 81.9408C36.4774 83.1168 36.4774 84.7338 36.4774 88.2618V117.662C36.4774 121.19 36.4774 122.807 35.4901 123.983C34.3616 125.012 32.81 125.012 29.4248 125.012H22.3721C18.9868 125.012 15.3212 125.01 15.3212 125.01C15.3212 125.01 15.3194 121.19 15.3194 117.662C15.3194 114.134 15.3194 36.8118 15.3194 36.8118C15.3194 33.2838 15.3194 31.6668 16.3068 30.4908C17.4352 29.4618 18.9868 29.4618 22.3721 29.4618C25.7574 29.4618 27.309 29.4618 28.4374 28.4328C29.4248 27.2568 29.4248 25.6398 29.4248 22.1118C29.4248 18.5838 29.4248 16.9668 30.4121 15.7908C31.5406 14.7618 33.0921 14.7618 36.4774 14.7618H91.4882C94.8735 14.7618 96.425 14.7618 97.5535 15.7908C98.5408 16.9668 98.5408 18.5838 98.5408 22.1118ZM91.4882 60.5118V53.1618C91.4882 49.6338 91.4882 48.0168 90.5008 46.8408C89.3724 45.8118 87.8208 45.8118 84.4355 45.8118H43.5301C40.1448 45.8118 38.5932 45.8118 37.4648 46.8408C36.4774 48.0168 36.4774 49.6338 36.4774 53.1618V60.5118C36.4774 64.0398 36.4774 65.6568 37.4648 66.8328C38.5932 67.8618 40.1448 67.8618 43.5301 67.8618H84.4355C87.8208 67.8618 89.3724 67.8618 90.5008 66.8328C91.4882 65.6568 91.4882 64.0398 91.4882 60.5118Z"/>
<path d="M94.2833 34.0118C94.2833 37.1318 94.2833 38.5618 95.149 39.6018C96.1383 40.5118 96.4987 40.5118 99.4667 40.5118C102.435 40.5118 103.795 40.5118 104.784 41.4218C105.65 42.4618 105.65 43.8918 105.65 47.0118V118.512C105.65 121.632 105.65 125.01 105.65 125.01C105.65 125.01 102.435 125.012 99.4667 125.012H94.2833C91.3153 125.012 89.955 125.012 88.9656 124.102C88.0999 123.062 88.0999 121.632 88.0999 118.512V92.5118C88.0999 89.3918 88.0999 87.9618 87.2343 86.9218C86.2449 86.0118 84.8846 86.0118 81.9166 86.0118H46.053C43.085 86.0118 41.7246 86.0118 40.7353 86.9218C39.8696 87.9618 39.8696 89.3918 39.8696 92.5118V118.512C39.8696 121.632 39.8696 123.062 39.0039 124.102C38.0146 125.012 36.6542 125.012 33.6862 125.012H28.5028C25.5348 125.012 22.32 125.01 22.32 125.01C22.32 125.01 22.3195 121.632 22.3195 118.512V47.0118C22.3195 43.8918 22.3195 42.4618 23.1851 41.4218C24.1745 40.5118 25.5348 40.5118 28.5028 40.5118C31.4709 40.5118 31.8312 40.5118 32.8205 39.6018C33.6862 38.5618 33.6862 37.1318 33.6862 34.0118C33.6862 30.8918 33.6862 29.4618 34.5519 28.4218C35.5412 27.5118 36.9016 27.5118 39.8696 27.5118H88.0999C91.068 27.5118 92.4283 27.5118 93.4177 28.4218C94.2833 29.4618 94.2833 30.8918 94.2833 34.0118ZM88.0999 60.0118V53.5118C88.0999 50.3918 88.0999 48.9618 87.2343 47.9218C86.2449 47.0118 84.8846 47.0118 81.9166 47.0118H46.053C43.085 47.0118 41.7246 47.0118 40.7353 47.9218C39.8696 48.9618 39.8696 50.3918 39.8696 53.5118V60.0118C39.8696 63.1318 39.8696 64.5618 40.7353 65.6018C41.7246 66.5118 43.085 66.5118 46.053 66.5118H81.9166C84.8846 66.5118 86.2449 66.5118 87.2343 65.6018C88.0999 64.5618 88.0999 63.1318 88.0999 60.0118Z"/>
</mask>
<path d="M103.171 11.6118C103.171 15.4998 103.171 17.2818 104.305 18.5778C105.601 19.7118 107.383 19.7118 111.271 19.7118C115.159 19.7118 116.941 19.7118 118.237 20.8458C119.371 22.1418 119.371 23.9238 119.371 27.8118V116.912C119.371 120.8 119.371 122.582 118.237 123.878C116.941 125.012 115.159 125.012 111.271 125.012H103.171C99.283 125.012 97.501 125.012 96.205 123.878C95.071 122.582 95.071 120.8 95.071 116.912V84.5118C95.071 80.6238 95.071 78.8418 93.937 77.5458C92.641 76.4118 90.859 76.4118 86.971 76.4118H39.991C36.103 76.4118 34.321 76.4118 33.025 77.5458C31.891 78.8418 31.891 80.6238 31.891 84.5118V116.912C31.891 120.8 31.891 122.582 30.757 123.878C29.461 125.012 27.679 125.012 23.791 125.012H15.691C11.803 125.012 10.021 125.012 8.72502 123.878C7.59102 122.582 7.59102 120.8 7.59102 116.912V27.8118C7.59102 23.9238 7.59102 22.1418 8.72502 20.8458C10.021 19.7118 11.803 19.7118 15.691 19.7118C19.579 19.7118 21.361 19.7118 22.657 18.5778C23.791 17.2818 23.791 15.4998 23.791 11.6118C23.791 7.72383 23.791 5.94183 24.925 4.64583C26.221 3.51183 28.003 3.51183 31.891 3.51183H95.071C98.959 3.51183 100.741 3.51183 102.037 4.64583C103.171 5.94183 103.171 7.72383 103.171 11.6118ZM95.071 61.0118V52.9118C95.071 49.0238 95.071 47.2418 93.937 45.9458C92.641 44.8118 90.859 44.8118 86.971 44.8118H39.991C36.103 44.8118 34.321 44.8118 33.025 45.9458C31.891 47.2418 31.891 49.0238 31.891 52.9118V61.0118C31.891 64.8998 31.891 66.6818 33.025 67.9778C34.321 69.1118 36.103 69.1118 39.991 69.1118H86.971C90.859 69.1118 92.641 69.1118 93.937 67.9778C95.071 66.6818 95.071 64.8998 95.071 61.0118Z" fill="#E57200"/>
<path d="M98.5408 22.1118C98.5408 25.6398 98.5408 27.2568 99.5282 28.4328C100.657 29.4618 102.208 29.4618 105.593 29.4618C108.979 29.4618 110.53 29.4618 111.659 30.4908C112.646 31.6668 112.646 33.2838 112.646 36.8118C112.646 36.8118 112.646 114.134 112.646 117.662C112.646 121.19 112.649 125.01 112.649 125.01C112.649 125.01 108.979 125.012 105.593 125.012H98.5408C95.1556 125.012 93.604 125.012 92.4755 123.983C91.4882 122.807 91.4882 121.19 91.4882 117.662V88.2618C91.4882 84.7338 91.4882 83.1168 90.5008 81.9408C89.3724 80.9118 87.8208 80.9118 84.4355 80.9118H43.5301C40.1448 80.9118 38.5932 80.9118 37.4648 81.9408C36.4774 83.1168 36.4774 84.7338 36.4774 88.2618V117.662C36.4774 121.19 36.4774 122.807 35.4901 123.983C34.3616 125.012 32.81 125.012 29.4248 125.012H22.3721C18.9868 125.012 15.3212 125.01 15.3212 125.01C15.3212 125.01 15.3194 121.19 15.3194 117.662C15.3194 114.134 15.3194 36.8118 15.3194 36.8118C15.3194 33.2838 15.3194 31.6668 16.3068 30.4908C17.4352 29.4618 18.9868 29.4618 22.3721 29.4618C25.7574 29.4618 27.309 29.4618 28.4374 28.4328C29.4248 27.2568 29.4248 25.6398 29.4248 22.1118C29.4248 18.5838 29.4248 16.9668 30.4121 15.7908C31.5406 14.7618 33.0921 14.7618 36.4774 14.7618H91.4882C94.8735 14.7618 96.425 14.7618 97.5535 15.7908C98.5408 16.9668 98.5408 18.5838 98.5408 22.1118ZM91.4882 60.5118V53.1618C91.4882 49.6338 91.4882 48.0168 90.5008 46.8408C89.3724 45.8118 87.8208 45.8118 84.4355 45.8118H43.5301C40.1448 45.8118 38.5932 45.8118 37.4648 46.8408C36.4774 48.0168 36.4774 49.6338 36.4774 53.1618V60.5118C36.4774 64.0398 36.4774 65.6568 37.4648 66.8328C38.5932 67.8618 40.1448 67.8618 43.5301 67.8618H84.4355C87.8208 67.8618 89.3724 67.8618 90.5008 66.8328C91.4882 65.6568 91.4882 64.0398 91.4882 60.5118Z" fill="#FFA347"/>
<path d="M94.2833 34.0118C94.2833 37.1318 94.2833 38.5618 95.149 39.6018C96.1383 40.5118 96.4987 40.5118 99.4667 40.5118C102.435 40.5118 103.795 40.5118 104.784 41.4218C105.65 42.4618 105.65 43.8918 105.65 47.0118V118.512C105.65 121.632 105.65 125.01 105.65 125.01C105.65 125.01 102.435 125.012 99.4667 125.012H94.2833C91.3153 125.012 89.955 125.012 88.9656 124.102C88.0999 123.062 88.0999 121.632 88.0999 118.512V92.5118C88.0999 89.3918 88.0999 87.9618 87.2343 86.9218C86.2449 86.0118 84.8846 86.0118 81.9166 86.0118H46.053C43.085 86.0118 41.7246 86.0118 40.7353 86.9218C39.8696 87.9618 39.8696 89.3918 39.8696 92.5118V118.512C39.8696 121.632 39.8696 123.062 39.0039 124.102C38.0146 125.012 36.6542 125.012 33.6862 125.012H28.5028C25.5348 125.012 22.32 125.01 22.32 125.01C22.32 125.01 22.3195 121.632 22.3195 118.512V47.0118C22.3195 43.8918 22.3195 42.4618 23.1851 41.4218C24.1745 40.5118 25.5348 40.5118 28.5028 40.5118C31.4709 40.5118 31.8312 40.5118 32.8205 39.6018C33.6862 38.5618 33.6862 37.1318 33.6862 34.0118C33.6862 30.8918 33.6862 29.4618 34.5519 28.4218C35.5412 27.5118 36.9016 27.5118 39.8696 27.5118H88.0999C91.068 27.5118 92.4283 27.5118 93.4177 28.4218C94.2833 29.4618 94.2833 30.8918 94.2833 34.0118ZM88.0999 60.0118V53.5118C88.0999 50.3918 88.0999 48.9618 87.2343 47.9218C86.2449 47.0118 84.8846 47.0118 81.9166 47.0118H46.053C43.085 47.0118 41.7246 47.0118 40.7353 47.9218C39.8696 48.9618 39.8696 50.3918 39.8696 53.5118V60.0118C39.8696 63.1318 39.8696 64.5618 40.7353 65.6018C41.7246 66.5118 43.085 66.5118 46.053 66.5118H81.9166C84.8846 66.5118 86.2449 66.5118 87.2343 65.6018C88.0999 64.5618 88.0999 63.1318 88.0999 60.0118Z" fill="#000638"/>
<path d="M103.171 11.6118C103.171 15.4998 103.171 17.2818 104.305 18.5778C105.601 19.7118 107.383 19.7118 111.271 19.7118C115.159 19.7118 116.941 19.7118 118.237 20.8458C119.371 22.1418 119.371 23.9238 119.371 27.8118V116.912C119.371 120.8 119.371 122.582 118.237 123.878C116.941 125.012 115.159 125.012 111.271 125.012H103.171C99.283 125.012 97.501 125.012 96.205 123.878C95.071 122.582 95.071 120.8 95.071 116.912V84.5118C95.071 80.6238 95.071 78.8418 93.937 77.5458C92.641 76.4118 90.859 76.4118 86.971 76.4118H39.991C36.103 76.4118 34.321 76.4118 33.025 77.5458C31.891 78.8418 31.891 80.6238 31.891 84.5118V116.912C31.891 120.8 31.891 122.582 30.757 123.878C29.461 125.012 27.679 125.012 23.791 125.012H15.691C11.803 125.012 10.021 125.012 8.72502 123.878C7.59102 122.582 7.59102 120.8 7.59102 116.912V27.8118C7.59102 23.9238 7.59102 22.1418 8.72502 20.8458C10.021 19.7118 11.803 19.7118 15.691 19.7118C19.579 19.7118 21.361 19.7118 22.657 18.5778C23.791 17.2818 23.791 15.4998 23.791 11.6118C23.791 7.72383 23.791 5.94183 24.925 4.64583C26.221 3.51183 28.003 3.51183 31.891 3.51183H95.071C98.959 3.51183 100.741 3.51183 102.037 4.64583C103.171 5.94183 103.171 7.72383 103.171 11.6118ZM95.071 61.0118V52.9118C95.071 49.0238 95.071 47.2418 93.937 45.9458C92.641 44.8118 90.859 44.8118 86.971 44.8118H39.991C36.103 44.8118 34.321 44.8118 33.025 45.9458C31.891 47.2418 31.891 49.0238 31.891 52.9118V61.0118C31.891 64.8998 31.891 66.6818 33.025 67.9778C34.321 69.1118 36.103 69.1118 39.991 69.1118H86.971C90.859 69.1118 92.641 69.1118 93.937 67.9778C95.071 66.6818 95.071 64.8998 95.071 61.0118Z" stroke="white" stroke-width="4" mask="url(#path-1-outside-1_29_8)"/>
<path d="M98.5408 22.1118C98.5408 25.6398 98.5408 27.2568 99.5282 28.4328C100.657 29.4618 102.208 29.4618 105.593 29.4618C108.979 29.4618 110.53 29.4618 111.659 30.4908C112.646 31.6668 112.646 33.2838 112.646 36.8118C112.646 36.8118 112.646 114.134 112.646 117.662C112.646 121.19 112.649 125.01 112.649 125.01C112.649 125.01 108.979 125.012 105.593 125.012H98.5408C95.1556 125.012 93.604 125.012 92.4755 123.983C91.4882 122.807 91.4882 121.19 91.4882 117.662V88.2618C91.4882 84.7338 91.4882 83.1168 90.5008 81.9408C89.3724 80.9118 87.8208 80.9118 84.4355 80.9118H43.5301C40.1448 80.9118 38.5932 80.9118 37.4648 81.9408C36.4774 83.1168 36.4774 84.7338 36.4774 88.2618V117.662C36.4774 121.19 36.4774 122.807 35.4901 123.983C34.3616 125.012 32.81 125.012 29.4248 125.012H22.3721C18.9868 125.012 15.3212 125.01 15.3212 125.01C15.3212 125.01 15.3194 121.19 15.3194 117.662C15.3194 114.134 15.3194 36.8118 15.3194 36.8118C15.3194 33.2838 15.3194 31.6668 16.3068 30.4908C17.4352 29.4618 18.9868 29.4618 22.3721 29.4618C25.7574 29.4618 27.309 29.4618 28.4374 28.4328C29.4248 27.2568 29.4248 25.6398 29.4248 22.1118C29.4248 18.5838 29.4248 16.9668 30.4121 15.7908C31.5406 14.7618 33.0921 14.7618 36.4774 14.7618H91.4882C94.8735 14.7618 96.425 14.7618 97.5535 15.7908C98.5408 16.9668 98.5408 18.5838 98.5408 22.1118ZM91.4882 60.5118V53.1618C91.4882 49.6338 91.4882 48.0168 90.5008 46.8408C89.3724 45.8118 87.8208 45.8118 84.4355 45.8118H43.5301C40.1448 45.8118 38.5932 45.8118 37.4648 46.8408C36.4774 48.0168 36.4774 49.6338 36.4774 53.1618V60.5118C36.4774 64.0398 36.4774 65.6568 37.4648 66.8328C38.5932 67.8618 40.1448 67.8618 43.5301 67.8618H84.4355C87.8208 67.8618 89.3724 67.8618 90.5008 66.8328C91.4882 65.6568 91.4882 64.0398 91.4882 60.5118Z" stroke="white" stroke-width="4" mask="url(#path-1-outside-1_29_8)"/>
<path d="M94.2833 34.0118C94.2833 37.1318 94.2833 38.5618 95.149 39.6018C96.1383 40.5118 96.4987 40.5118 99.4667 40.5118C102.435 40.5118 103.795 40.5118 104.784 41.4218C105.65 42.4618 105.65 43.8918 105.65 47.0118V118.512C105.65 121.632 105.65 125.01 105.65 125.01C105.65 125.01 102.435 125.012 99.4667 125.012H94.2833C91.3153 125.012 89.955 125.012 88.9656 124.102C88.0999 123.062 88.0999 121.632 88.0999 118.512V92.5118C88.0999 89.3918 88.0999 87.9618 87.2343 86.9218C86.2449 86.0118 84.8846 86.0118 81.9166 86.0118H46.053C43.085 86.0118 41.7246 86.0118 40.7353 86.9218C39.8696 87.9618 39.8696 89.3918 39.8696 92.5118V118.512C39.8696 121.632 39.8696 123.062 39.0039 124.102C38.0146 125.012 36.6542 125.012 33.6862 125.012H28.5028C25.5348 125.012 22.32 125.01 22.32 125.01C22.32 125.01 22.3195 121.632 22.3195 118.512V47.0118C22.3195 43.8918 22.3195 42.4618 23.1851 41.4218C24.1745 40.5118 25.5348 40.5118 28.5028 40.5118C31.4709 40.5118 31.8312 40.5118 32.8205 39.6018C33.6862 38.5618 33.6862 37.1318 33.6862 34.0118C33.6862 30.8918 33.6862 29.4618 34.5519 28.4218C35.5412 27.5118 36.9016 27.5118 39.8696 27.5118H88.0999C91.068 27.5118 92.4283 27.5118 93.4177 28.4218C94.2833 29.4618 94.2833 30.8918 94.2833 34.0118ZM88.0999 60.0118V53.5118C88.0999 50.3918 88.0999 48.9618 87.2343 47.9218C86.2449 47.0118 84.8846 47.0118 81.9166 47.0118H46.053C43.085 47.0118 41.7246 47.0118 40.7353 47.9218C39.8696 48.9618 39.8696 50.3918 39.8696 53.5118V60.0118C39.8696 63.1318 39.8696 64.5618 40.7353 65.6018C41.7246 66.5118 43.085 66.5118 46.053 66.5118H81.9166C84.8846 66.5118 86.2449 66.5118 87.2343 65.6018C88.0999 64.5618 88.0999 63.1318 88.0999 60.0118Z" stroke="white" stroke-width="4" mask="url(#path-1-outside-1_29_8)"/>
</svg>
