<svg width="128" height="128" viewBox="0 0 128 128" fill="none" xmlns="http://www.w3.org/2000/svg">
<path d="M105.061 19.655C105.061 23.255 105.061 24.905 106.111 26.105C107.311 27.155 108.961 27.155 112.561 27.155C116.161 27.155 117.811 27.155 119.011 28.205C120.061 29.405 120.061 31.055 120.061 34.655V117.155C120.061 120.755 120.061 122.405 119.011 123.605C117.811 124.655 116.161 124.655 112.561 124.655H105.061C101.461 124.655 99.8114 124.655 98.6114 123.605C97.5614 122.405 97.5614 120.755 97.5614 117.155V42.155C97.5614 38.555 97.5614 36.905 96.5114 35.705C95.3114 34.655 93.6614 34.655 90.0614 34.655H82.5614C78.9614 34.655 77.3114 34.655 76.1114 35.705C75.0614 36.905 75.0614 38.555 75.0614 42.155V117.155C75.0614 120.755 75.0614 122.405 74.0114 123.605C72.8114 124.655 71.1614 124.655 67.5614 124.655H60.0614C56.4614 124.655 54.8114 124.655 53.6114 123.605C52.5614 122.405 52.5614 120.755 52.5614 117.155V42.155C52.5614 38.555 52.5614 36.905 51.5114 35.705C50.3114 34.655 48.6614 34.655 45.0614 34.655H37.5614C33.9614 34.655 32.3114 34.655 31.1114 35.705C30.0614 36.905 30.0614 38.555 30.0614 42.155V117.155C30.0614 120.755 30.0614 122.405 29.0114 123.605C27.8114 124.655 26.1614 124.655 22.5614 124.655H15.0614C11.4614 124.655 9.81137 124.655 8.61137 123.605C7.56137 122.405 7.56137 120.755 7.56137 117.155V34.655C7.56137 31.055 7.56137 29.405 8.61137 28.205C9.81137 27.155 11.4614 27.155 15.0614 27.155C18.6614 27.155 20.3114 27.155 21.5114 26.105C22.5614 24.905 22.5614 23.255 22.5614 19.655C22.5614 16.055 22.5614 14.405 23.6114 13.205C24.8114 12.155 26.4614 12.155 30.0614 12.155H52.5614C56.1614 12.155 57.8114 12.155 59.0114 13.205C60.0614 14.405 60.0614 16.055 60.0614 19.655V23.405C60.0614 25.505 61.7114 27.155 63.8114 27.155C65.9114 27.155 67.5614 25.505 67.5614 23.405V19.655C67.5614 16.055 67.5614 14.405 68.6114 13.205C69.8114 12.155 71.4614 12.155 75.0614 12.155H97.5614C101.161 12.155 102.811 12.155 104.011 13.205C105.061 14.405 105.061 16.055 105.061 19.655Z" fill="#E57200"/>
<path d="M99.5594 33.655C99.5594 36.775 99.5594 38.205 100.469 39.245C101.509 40.155 102.939 40.155 106.059 40.155C109.179 40.155 110.609 40.155 111.649 41.065C112.559 42.105 112.559 43.535 112.559 46.655V118.155C112.559 121.275 112.559 122.705 111.649 123.745C110.609 124.655 109.179 124.655 106.059 124.655H99.5594C96.4394 124.655 95.0094 124.655 93.9694 123.745C93.0594 122.705 93.0594 121.275 93.0594 118.155V53.155C93.0594 50.035 93.0594 48.605 92.1494 47.565C91.1094 46.655 89.6794 46.655 86.5594 46.655H80.0594C76.9394 46.655 75.5094 46.655 74.4694 47.565C73.5594 48.605 73.5594 50.035 73.5594 53.155V118.155C73.5594 121.275 73.5594 122.705 72.6494 123.745C71.6094 124.655 70.1794 124.655 67.0594 124.655H60.5594C57.4394 124.655 56.0094 124.655 54.9694 123.745C54.0594 122.705 54.0594 121.275 54.0594 118.155V53.155C54.0594 50.035 54.0594 48.605 53.1494 47.565C52.1094 46.655 50.6794 46.655 47.5594 46.655H41.0594C37.9394 46.655 36.5094 46.655 35.4694 47.565C34.5594 48.605 34.5594 50.035 34.5594 53.155V118.155C34.5594 121.275 34.5594 122.705 33.6494 123.745C32.6094 124.655 31.1794 124.655 28.0594 124.655H21.5594C18.4394 124.655 17.0094 124.655 15.9694 123.745C15.0594 122.705 15.0594 121.275 15.0594 118.155V46.655C15.0594 43.535 15.0594 42.105 15.9694 41.065C17.0094 40.155 18.4394 40.155 21.5594 40.155C24.6794 40.155 26.1094 40.155 27.1494 39.245C28.0594 38.205 28.0594 36.775 28.0594 33.655C28.0594 30.535 28.0594 29.105 28.9694 28.065C30.0094 27.155 31.4394 27.155 34.5594 27.155H54.0594C57.1794 27.155 58.6094 27.155 59.6494 28.065C60.5594 29.105 60.5594 30.535 60.5594 33.655V36.905C60.5594 38.725 61.9894 40.155 63.8094 40.155C65.6294 40.155 67.0594 38.725 67.0594 36.905V33.655C67.0594 30.535 67.0594 29.105 67.9694 28.065C69.0094 27.155 70.4394 27.155 73.5594 27.155H93.0594C96.1794 27.155 97.6094 27.155 98.6494 28.065C99.5594 29.105 99.5594 30.535 99.5594 33.655Z" fill="#FFA347"/>
<path d="M94.0575 47.655C94.0575 50.295 94.0575 51.505 94.8275 52.385C95.7075 53.155 96.9175 53.155 99.5575 53.155C102.197 53.155 103.407 53.155 104.287 53.925C105.057 54.805 105.057 56.015 105.057 58.655V119.155C105.057 121.795 105.057 123.005 104.287 123.885C103.407 124.655 102.197 124.655 99.5575 124.655H94.0575C91.4175 124.655 90.2075 124.655 89.3275 123.885C88.5575 123.005 88.5575 121.795 88.5575 119.155V64.155C88.5575 61.515 88.5575 60.305 87.7875 59.425C86.9075 58.655 85.6975 58.655 83.0575 58.655H77.5575C74.9175 58.655 73.7075 58.655 72.8275 59.425C72.0575 60.305 72.0575 61.515 72.0575 64.155V119.155C72.0575 121.795 72.0575 123.005 71.2875 123.885C70.4075 124.655 69.1975 124.655 66.5575 124.655H61.0575C58.4175 124.655 57.2075 124.655 56.3275 123.885C55.5575 123.005 55.5575 121.795 55.5575 119.155V64.155C55.5575 61.515 55.5575 60.305 54.7875 59.425C53.9075 58.655 52.6975 58.655 50.0575 58.655H44.5575C41.9175 58.655 40.7075 58.655 39.8275 59.425C39.0575 60.305 39.0575 61.515 39.0575 64.155V119.155C39.0575 121.795 39.0575 123.005 38.2875 123.885C37.4075 124.655 36.1975 124.655 33.5575 124.655H28.0575C25.4175 124.655 24.2075 124.655 23.3275 123.885C22.5575 123.005 22.5575 121.795 22.5575 119.155V58.655C22.5575 56.015 22.5575 54.805 23.3275 53.925C24.2075 53.155 25.4175 53.155 28.0575 53.155C30.6975 53.155 31.9075 53.155 32.7875 52.385C33.5575 51.505 33.5575 50.295 33.5575 47.655C33.5575 45.015 33.5575 43.805 34.3275 42.925C35.2075 42.155 36.4175 42.155 39.0575 42.155H55.5575C58.1975 42.155 59.4075 42.155 60.2875 42.925C61.0575 43.805 61.0575 45.015 61.0575 47.655V50.405C61.0575 51.945 62.2675 53.155 63.8075 53.155C65.3475 53.155 66.5575 51.945 66.5575 50.405V47.655C66.5575 45.015 66.5575 43.805 67.3275 42.925C68.2075 42.155 69.4175 42.155 72.0575 42.155H88.5575C91.1975 42.155 92.4075 42.155 93.2875 42.925C94.0575 43.805 94.0575 45.015 94.0575 47.655Z" fill="#000638"/>
</svg>
